<mxfile host="Electron" agent="Mozilla/5.0 (Windows NT 10.0; Win64; x64) AppleWebKit/537.36 (KHTML, like Gecko) draw.io/28.0.6 Chrome/138.0.7204.100 Electron/37.2.3 Safari/537.36" version="28.0.6">
  <diagram name="Cyber XO Extreme Flow" id="detailed1">
    <mxGraphModel dx="2066" dy="1226" grid="1" gridSize="10" guides="1" tooltips="1" connect="1" arrows="1" fold="1" page="1" pageScale="1" pageWidth="827" pageHeight="1169" math="0" shadow="0">
      <root>
        <mxCell id="0" />
        <mxCell id="1" parent="0" />
        <mxCell id="start" value="Start" style="ellipse;whiteSpace=wrap;html=1;sketch=1;curveFitting=1;jiggle=2;fillColor=#66FFB3;gradientColor=#7ea6e0;strokeColor=#6c8ebf;shadow=1;" parent="1" vertex="1">
          <mxGeometry x="324" y="10" width="120" height="60" as="geometry" />
        </mxCell>
        <mxCell id="install" value="Install / Import Colorama" style="rounded=1;whiteSpace=wrap;html=1;fillColor=#663300;strokeColor=#d6b656;gradientColor=#ffd966;sketch=1;curveFitting=1;jiggle=2;shadow=1;" parent="1" vertex="1">
          <mxGeometry x="294" y="110" width="180" height="60" as="geometry" />
        </mxCell>
        <mxCell id="import_dec" value="Import Successful?" style="rhombus;whiteSpace=wrap;html=1;fillColor=#4C0099;strokeColor=#82b366;gradientColor=#97d077;sketch=1;curveFitting=1;jiggle=2;shadow=1;" parent="1" vertex="1">
          <mxGeometry x="314" y="210" width="140" height="80" as="geometry" />
        </mxCell>
        <mxCell id="exit_err" value="Error - Exit" style="ellipse;whiteSpace=wrap;html=1;fillColor=#660000;strokeColor=#666666;gradientColor=#b3b3b3;sketch=1;curveFitting=1;jiggle=2;shadow=1;" parent="1" vertex="1">
          <mxGeometry x="134" y="220" width="120" height="60" as="geometry" />
        </mxCell>
        <mxCell id="welcome" value="Welcome Message" style="rounded=1;whiteSpace=wrap;html=1;fillColor=#663300;strokeColor=#d6b656;gradientColor=#ffd966;sketch=1;curveFitting=1;jiggle=2;shadow=1;" parent="1" vertex="1">
          <mxGeometry x="304" y="330" width="160" height="60" as="geometry" />
        </mxCell>
        <mxCell id="input_name" value="Input Player Name" style="parallelogram;whiteSpace=wrap;html=1;fillColor=#663300;strokeColor=#d6b656;gradientColor=#ffd966;sketch=1;curveFitting=1;jiggle=2;shadow=1;" parent="1" vertex="1">
          <mxGeometry x="294" y="430" width="180" height="60" as="geometry" />
        </mxCell>
        <mxCell id="valid_name" value="Valid Name?" style="rhombus;whiteSpace=wrap;html=1;fillColor=#4C0099;strokeColor=#82b366;gradientColor=#97d077;sketch=1;curveFitting=1;jiggle=2;shadow=1;" parent="1" vertex="1">
          <mxGeometry x="314" y="530" width="140" height="80" as="geometry" />
        </mxCell>
        <mxCell id="scoreboard" value="Init Scoreboard" style="rounded=1;whiteSpace=wrap;html=1;fillColor=#663300;strokeColor=#d6b656;gradientColor=#ffd966;sketch=1;curveFitting=1;jiggle=2;shadow=1;" parent="1" vertex="1">
          <mxGeometry x="304" y="650" width="160" height="60" as="geometry" />
        </mxCell>
        <mxCell id="main_loop" value="Main Game Loop" style="ellipse;shape=doubleEllipse;whiteSpace=wrap;html=1;fillColor=#66FFB3;strokeColor=#6c8ebf;gradientColor=#7ea6e0;sketch=1;curveFitting=1;jiggle=2;shadow=1;" parent="1" vertex="1">
          <mxGeometry x="294" y="750" width="180" height="80" as="geometry" />
        </mxCell>
        <mxCell id="player_sel" value="Player Selection" style="rounded=1;whiteSpace=wrap;html=1;fillColor=#663300;strokeColor=#d6b656;gradientColor=#ffd966;sketch=1;curveFitting=1;jiggle=2;shadow=1;" parent="1" vertex="1">
          <mxGeometry x="294" y="870" width="180" height="60" as="geometry" />
        </mxCell>
        <mxCell id="vs_computer" value="Vs Computer?" style="rhombus;whiteSpace=wrap;html=1;fillColor=#4C0099;strokeColor=#82b366;gradientColor=#97d077;sketch=1;curveFitting=1;jiggle=2;shadow=1;" parent="1" vertex="1">
          <mxGeometry x="314" y="970" width="140" height="80" as="geometry" />
        </mxCell>
        <mxCell id="skynet" value="Opponent = Skynet \ Player chooses symbol" style="rounded=1;whiteSpace=wrap;html=1;fillColor=#660000;strokeColor=#666666;gradientColor=#b3b3b3;sketch=1;curveFitting=1;jiggle=2;shadow=1;" parent="1" vertex="1">
          <mxGeometry x="94" y="1070" width="200" height="80" as="geometry" />
        </mxCell>
        <mxCell id="human" value="Opponent = Human \ Input name + symbol" style="rounded=1;whiteSpace=wrap;html=1;fillColor=#660000;strokeColor=#666666;gradientColor=#b3b3b3;sketch=1;curveFitting=1;jiggle=2;shadow=1;" parent="1" vertex="1">
          <mxGeometry x="474" y="1070" width="200" height="80" as="geometry" />
        </mxCell>
        <mxCell id="game_loop" value="Gameplay Loop" style="ellipse;shape=doubleEllipse;whiteSpace=wrap;html=1;fillColor=#66FFB3;strokeColor=#6c8ebf;gradientColor=#7ea6e0;sketch=1;curveFitting=1;jiggle=2;shadow=1;" parent="1" vertex="1">
          <mxGeometry x="294" y="1190" width="180" height="80" as="geometry" />
        </mxCell>
        <mxCell id="comp_move" value="Computer Move" style="rounded=1;whiteSpace=wrap;html=1;fillColor=#660000;strokeColor=#666666;gradientColor=#b3b3b3;sketch=1;curveFitting=1;jiggle=2;shadow=1;" parent="1" vertex="1">
          <mxGeometry x="94" y="1310" width="160" height="60" as="geometry" />
        </mxCell>
        <mxCell id="human_move" value="Human Move" style="parallelogram;whiteSpace=wrap;html=1;fillColor=#660000;strokeColor=#666666;gradientColor=#b3b3b3;sketch=1;curveFitting=1;jiggle=2;shadow=1;" parent="1" vertex="1">
          <mxGeometry x="494" y="1310" width="160" height="60" as="geometry" />
        </mxCell>
        <mxCell id="update_board" value="Update Board" style="rounded=1;whiteSpace=wrap;html=1;fillColor=#663300;strokeColor=#d6b656;gradientColor=#ffd966;sketch=1;curveFitting=1;jiggle=2;shadow=1;" parent="1" vertex="1">
          <mxGeometry x="304" y="1420" width="160" height="60" as="geometry" />
        </mxCell>
        <mxCell id="check_win" value="Winner" style="rhombus;whiteSpace=wrap;html=1;fillColor=#4C0099;strokeColor=#82b366;gradientColor=#97d077;sketch=1;curveFitting=1;jiggle=2;shadow=1;" parent="1" vertex="1">
          <mxGeometry x="314" y="1680" width="140" height="80" as="geometry" />
        </mxCell>
        <mxCell id="win_exit" value="Announce Winner + Update Score" style="rounded=1;whiteSpace=wrap;html=1;fillColor=#660000;strokeColor=#666666;gradientColor=#b3b3b3;sketch=1;curveFitting=1;jiggle=2;shadow=1;" parent="1" vertex="1">
          <mxGeometry x="74" y="1680" width="200" height="80" as="geometry" />
        </mxCell>
        <mxCell id="check_tie" value="Tie?" style="rhombus;whiteSpace=wrap;html=1;fillColor=#4C0099;strokeColor=#82b366;gradientColor=#97d077;sketch=1;curveFitting=1;jiggle=2;shadow=1;" parent="1" vertex="1">
          <mxGeometry x="314" y="1810" width="140" height="80" as="geometry" />
        </mxCell>
        <mxCell id="tie_exit" value="Announce Tie" style="rounded=1;whiteSpace=wrap;html=1;fillColor=#660000;strokeColor=#666666;gradientColor=#b3b3b3;sketch=1;curveFitting=1;jiggle=2;shadow=1;" parent="1" vertex="1">
          <mxGeometry x="504" y="1820" width="140" height="60" as="geometry" />
        </mxCell>
        <mxCell id="predict" value="Predict Winning Move" style="rhombus;whiteSpace=wrap;html=1;fillColor=#4C0099;strokeColor=#82b366;gradientColor=#97d077;sketch=1;curveFitting=1;jiggle=2;shadow=1;" parent="1" vertex="1">
          <mxGeometry x="304" y="1540" width="160" height="80" as="geometry" />
        </mxCell>
        <mxCell id="print_pred" value="Print Prediction + Board" style="rounded=1;whiteSpace=wrap;html=1;fillColor=#660000;strokeColor=#666666;gradientColor=#b3b3b3;sketch=1;curveFitting=1;jiggle=2;shadow=1;" parent="1" vertex="1">
          <mxGeometry x="484" y="1540" width="180" height="80" as="geometry" />
        </mxCell>
        <mxCell id="print_score" value="Print Scoreboard" style="rounded=1;whiteSpace=wrap;html=1;fillColor=#663300;strokeColor=#d6b656;gradientColor=#ffd966;sketch=1;curveFitting=1;jiggle=2;shadow=1;" parent="1" vertex="1">
          <mxGeometry x="294" y="1980" width="180" height="60" as="geometry" />
        </mxCell>
        <mxCell id="play_again" value="Play Again?" style="rhombus;whiteSpace=wrap;html=1;fillColor=#4C0099;strokeColor=#82b366;gradientColor=#97d077;sketch=1;curveFitting=1;jiggle=2;shadow=1;" parent="1" vertex="1">
          <mxGeometry x="314" y="2090" width="140" height="80" as="geometry" />
        </mxCell>
        <mxCell id="exit_game" value="Exit - Goodbye Message" style="ellipse;whiteSpace=wrap;html=1;fillColor=#66FFB3;strokeColor=#6c8ebf;gradientColor=#7ea6e0;sketch=1;curveFitting=1;jiggle=2;shadow=1;" parent="1" vertex="1">
          <mxGeometry x="284" y="2228" width="200" height="80" as="geometry" />
        </mxCell>
        <mxCell id="edge1" style="fillColor=#f8cecc;strokeColor=#007FFF;gradientColor=#ea6b66;sketch=1;curveFitting=1;jiggle=2;shadow=1;" parent="1" source="start" target="install" edge="1">
          <mxGeometry relative="1" as="geometry" />
        </mxCell>
        <mxCell id="edge2" style="fillColor=#f8cecc;strokeColor=#007FFF;gradientColor=#ea6b66;sketch=1;curveFitting=1;jiggle=2;shadow=1;" parent="1" source="install" target="import_dec" edge="1">
          <mxGeometry relative="1" as="geometry" />
        </mxCell>
        <mxCell id="edge3" style="fillColor=#f8cecc;strokeColor=#007FFF;gradientColor=#ea6b66;sketch=1;curveFitting=1;jiggle=2;shadow=1;" parent="1" source="import_dec" target="exit_err" edge="1">
          <mxGeometry relative="1" as="geometry" />
        </mxCell>
        <mxCell id="S7Kg_eCqH_XXfM1-XtLd-15" value="No" style="edgeLabel;html=1;align=center;verticalAlign=middle;resizable=0;points=[];" vertex="1" connectable="0" parent="edge3">
          <mxGeometry x="-0.1556" relative="1" as="geometry">
            <mxPoint as="offset" />
          </mxGeometry>
        </mxCell>
        <mxCell id="edge4" style="fillColor=#f8cecc;strokeColor=#007FFF;gradientColor=#ea6b66;sketch=1;curveFitting=1;jiggle=2;shadow=1;" parent="1" source="import_dec" target="welcome" edge="1">
          <mxGeometry relative="1" as="geometry" />
        </mxCell>
        <mxCell id="edge5" style="fillColor=#f8cecc;strokeColor=#007FFF;gradientColor=#ea6b66;sketch=1;curveFitting=1;jiggle=2;shadow=1;" parent="1" source="welcome" target="input_name" edge="1">
          <mxGeometry relative="1" as="geometry" />
        </mxCell>
        <mxCell id="edge6" style="fillColor=#f8cecc;strokeColor=#007FFF;gradientColor=#ea6b66;sketch=1;curveFitting=1;jiggle=2;shadow=1;" parent="1" source="input_name" target="valid_name" edge="1">
          <mxGeometry relative="1" as="geometry" />
        </mxCell>
        <mxCell id="edge7" style="fillColor=#f8cecc;strokeColor=#007FFF;gradientColor=#ea6b66;sketch=1;curveFitting=1;jiggle=2;shadow=1;" parent="1" source="valid_name" target="scoreboard" edge="1">
          <mxGeometry relative="1" as="geometry" />
        </mxCell>
        <mxCell id="edge8" style="fillColor=#f8cecc;strokeColor=#007FFF;gradientColor=#ea6b66;sketch=1;curveFitting=1;jiggle=2;shadow=1;" parent="1" source="scoreboard" target="main_loop" edge="1">
          <mxGeometry relative="1" as="geometry" />
        </mxCell>
        <mxCell id="edge9" style="fillColor=#f8cecc;strokeColor=#007FFF;gradientColor=#ea6b66;sketch=1;curveFitting=1;jiggle=2;shadow=1;" parent="1" source="main_loop" target="player_sel" edge="1">
          <mxGeometry relative="1" as="geometry" />
        </mxCell>
        <mxCell id="edge10" style="fillColor=#f8cecc;strokeColor=#007FFF;gradientColor=#ea6b66;sketch=1;curveFitting=1;jiggle=2;shadow=1;" parent="1" source="player_sel" target="vs_computer" edge="1">
          <mxGeometry relative="1" as="geometry" />
        </mxCell>
        <mxCell id="edge11" style="fillColor=#f8cecc;strokeColor=#007FFF;gradientColor=#ea6b66;sketch=1;curveFitting=1;jiggle=2;shadow=1;" parent="1" source="vs_computer" target="skynet" edge="1">
          <mxGeometry relative="1" as="geometry" />
        </mxCell>
        <mxCell id="S7Kg_eCqH_XXfM1-XtLd-13" value="Yes" style="edgeLabel;html=1;align=center;verticalAlign=middle;resizable=0;points=[];" vertex="1" connectable="0" parent="edge11">
          <mxGeometry x="-0.0617" y="-8" relative="1" as="geometry">
            <mxPoint as="offset" />
          </mxGeometry>
        </mxCell>
        <mxCell id="edge12" style="fillColor=#f8cecc;strokeColor=#007FFF;gradientColor=#ea6b66;sketch=1;curveFitting=1;jiggle=2;shadow=1;" parent="1" source="vs_computer" target="human" edge="1">
          <mxGeometry relative="1" as="geometry" />
        </mxCell>
        <mxCell id="S7Kg_eCqH_XXfM1-XtLd-14" value="No" style="edgeLabel;html=1;align=center;verticalAlign=middle;resizable=0;points=[];" vertex="1" connectable="0" parent="edge12">
          <mxGeometry x="-0.1039" y="3" relative="1" as="geometry">
            <mxPoint as="offset" />
          </mxGeometry>
        </mxCell>
        <mxCell id="edge13" style="fillColor=#f8cecc;strokeColor=#007FFF;gradientColor=#ea6b66;sketch=1;curveFitting=1;jiggle=2;shadow=1;" parent="1" source="skynet" target="game_loop" edge="1">
          <mxGeometry relative="1" as="geometry" />
        </mxCell>
        <mxCell id="edge14" style="fillColor=#f8cecc;strokeColor=#007FFF;gradientColor=#ea6b66;sketch=1;curveFitting=1;jiggle=2;shadow=1;" parent="1" source="human" target="game_loop" edge="1">
          <mxGeometry relative="1" as="geometry" />
        </mxCell>
        <mxCell id="edge15" style="fillColor=#f8cecc;strokeColor=#007FFF;gradientColor=#ea6b66;sketch=1;curveFitting=1;jiggle=2;shadow=1;" parent="1" source="game_loop" target="comp_move" edge="1">
          <mxGeometry relative="1" as="geometry" />
        </mxCell>
        <mxCell id="S7Kg_eCqH_XXfM1-XtLd-20" value="If Computer Exists" style="edgeLabel;html=1;align=center;verticalAlign=middle;resizable=0;points=[];" vertex="1" connectable="0" parent="edge15">
          <mxGeometry x="0.0449" y="3" relative="1" as="geometry">
            <mxPoint as="offset" />
          </mxGeometry>
        </mxCell>
        <mxCell id="edge16" style="fillColor=#f8cecc;strokeColor=#007FFF;gradientColor=#ea6b66;sketch=1;curveFitting=1;jiggle=2;shadow=1;" parent="1" source="game_loop" target="human_move" edge="1">
          <mxGeometry relative="1" as="geometry" />
        </mxCell>
        <mxCell id="edge17" style="fillColor=#f8cecc;strokeColor=#007FFF;gradientColor=#ea6b66;sketch=1;curveFitting=1;jiggle=2;shadow=1;" parent="1" source="comp_move" target="update_board" edge="1">
          <mxGeometry relative="1" as="geometry" />
        </mxCell>
        <mxCell id="edge18" style="fillColor=#f8cecc;strokeColor=#007FFF;gradientColor=#ea6b66;sketch=1;curveFitting=1;jiggle=2;shadow=1;" parent="1" source="human_move" target="update_board" edge="1">
          <mxGeometry relative="1" as="geometry" />
        </mxCell>
        <mxCell id="edge19" style="fillColor=#f8cecc;strokeColor=#007FFF;gradientColor=#ea6b66;sketch=1;curveFitting=1;jiggle=2;shadow=1;entryX=0.5;entryY=0;entryDx=0;entryDy=0;" parent="1" source="update_board" target="predict" edge="1">
          <mxGeometry relative="1" as="geometry">
            <mxPoint x="504" y="1520" as="targetPoint" />
          </mxGeometry>
        </mxCell>
        <mxCell id="edge20" style="fillColor=#f8cecc;strokeColor=#007FFF;gradientColor=#ea6b66;sketch=1;curveFitting=1;jiggle=2;shadow=1;" parent="1" source="check_win" target="win_exit" edge="1">
          <mxGeometry relative="1" as="geometry" />
        </mxCell>
        <mxCell id="edge21" style="fillColor=#f8cecc;strokeColor=#007FFF;gradientColor=#ea6b66;sketch=1;curveFitting=1;jiggle=2;shadow=1;" parent="1" source="check_win" edge="1">
          <mxGeometry relative="1" as="geometry">
            <mxPoint x="384" y="1810" as="targetPoint" />
          </mxGeometry>
        </mxCell>
        <mxCell id="edge22" style="fillColor=#f8cecc;strokeColor=#007FFF;gradientColor=#ea6b66;sketch=1;curveFitting=1;jiggle=2;shadow=1;" parent="1" source="check_tie" target="tie_exit" edge="1">
          <mxGeometry relative="1" as="geometry" />
        </mxCell>
        <mxCell id="S7Kg_eCqH_XXfM1-XtLd-11" value="Yes" style="edgeLabel;html=1;align=center;verticalAlign=middle;resizable=0;points=[];" vertex="1" connectable="0" parent="edge22">
          <mxGeometry x="-0.3733" y="1" relative="1" as="geometry">
            <mxPoint as="offset" />
          </mxGeometry>
        </mxCell>
        <mxCell id="edge23" style="fillColor=#f8cecc;strokeColor=#007FFF;gradientColor=#ea6b66;sketch=1;curveFitting=1;jiggle=2;shadow=1;entryX=0.5;entryY=0;entryDx=0;entryDy=0;" parent="1" source="check_tie" target="print_score" edge="1">
          <mxGeometry relative="1" as="geometry">
            <mxPoint x="404" y="1940" as="targetPoint" />
          </mxGeometry>
        </mxCell>
        <mxCell id="S7Kg_eCqH_XXfM1-XtLd-7" value="No" style="edgeLabel;html=1;align=center;verticalAlign=middle;resizable=0;points=[];" vertex="1" connectable="0" parent="edge23">
          <mxGeometry x="-0.4095" y="3" relative="1" as="geometry">
            <mxPoint as="offset" />
          </mxGeometry>
        </mxCell>
        <mxCell id="edge25" style="fillColor=#f8cecc;strokeColor=#007FFF;gradientColor=#ea6b66;sketch=1;curveFitting=1;jiggle=2;shadow=1;" parent="1" source="predict" target="print_pred" edge="1">
          <mxGeometry relative="1" as="geometry" />
        </mxCell>
        <mxCell id="edge27" style="fillColor=#f8cecc;strokeColor=#007FFF;gradientColor=#ea6b66;sketch=1;curveFitting=1;jiggle=2;shadow=1;" parent="1" source="print_pred" target="check_win" edge="1">
          <mxGeometry relative="1" as="geometry">
            <mxPoint x="554" y="1710" as="targetPoint" />
          </mxGeometry>
        </mxCell>
        <mxCell id="edge28" style="fillColor=#f8cecc;strokeColor=#007FFF;gradientColor=#ea6b66;sketch=1;curveFitting=1;jiggle=2;shadow=1;entryX=0.5;entryY=0;entryDx=0;entryDy=0;exitX=0.5;exitY=1;exitDx=0;exitDy=0;" parent="1" source="predict" target="check_win" edge="1">
          <mxGeometry relative="1" as="geometry">
            <mxPoint x="438" y="1660" as="sourcePoint" />
            <mxPoint x="368" y="1690" as="targetPoint" />
          </mxGeometry>
        </mxCell>
        <mxCell id="edge30" value="No" style="fillColor=#f8cecc;strokeColor=#007FFF;gradientColor=#ea6b66;sketch=1;curveFitting=1;jiggle=2;shadow=1;" parent="1" source="play_again" target="exit_game" edge="1">
          <mxGeometry relative="1" as="geometry" />
        </mxCell>
        <mxCell id="UXqL9y__-K7NEQa9s-TE-1" style="edgeStyle=orthogonalEdgeStyle;rounded=0;orthogonalLoop=1;jettySize=auto;html=1;exitX=0.5;exitY=1;exitDx=0;exitDy=0;fillColor=#f8cecc;strokeColor=#007FFF;gradientColor=#ea6b66;sketch=1;curveFitting=1;jiggle=2;shadow=1;" parent="1" source="print_score" target="print_score" edge="1">
          <mxGeometry relative="1" as="geometry" />
        </mxCell>
        <mxCell id="S7Kg_eCqH_XXfM1-XtLd-3" value="Yes" style="rounded=1;whiteSpace=wrap;html=1;fillColor=#660000;strokeColor=#666666;gradientColor=#b3b3b3;sketch=1;curveFitting=1;jiggle=2;shadow=1;" vertex="1" parent="1">
          <mxGeometry x="494" y="2100" width="140" height="60" as="geometry" />
        </mxCell>
        <mxCell id="S7Kg_eCqH_XXfM1-XtLd-5" style="fillColor=#f8cecc;strokeColor=#007FFF;gradientColor=#ea6b66;sketch=1;curveFitting=1;jiggle=2;shadow=1;exitX=1;exitY=0.5;exitDx=0;exitDy=0;entryX=0;entryY=0.5;entryDx=0;entryDy=0;" edge="1" parent="1" source="play_again" target="S7Kg_eCqH_XXfM1-XtLd-3">
          <mxGeometry relative="1" as="geometry">
            <mxPoint x="484" y="2220" as="sourcePoint" />
            <mxPoint x="534" y="2220" as="targetPoint" />
          </mxGeometry>
        </mxCell>
        <mxCell id="S7Kg_eCqH_XXfM1-XtLd-6" style="fillColor=#f8cecc;strokeColor=#007FFF;gradientColor=#ea6b66;sketch=1;curveFitting=1;jiggle=2;shadow=1;exitX=1;exitY=0.5;exitDx=0;exitDy=0;entryX=1;entryY=0.5;entryDx=0;entryDy=0;" edge="1" parent="1" source="S7Kg_eCqH_XXfM1-XtLd-3" target="player_sel">
          <mxGeometry relative="1" as="geometry">
            <mxPoint x="754" y="2230" as="sourcePoint" />
            <mxPoint x="804" y="2230" as="targetPoint" />
            <Array as="points">
              <mxPoint x="760" y="2130" />
              <mxPoint x="754" y="900" />
            </Array>
          </mxGeometry>
        </mxCell>
        <mxCell id="S7Kg_eCqH_XXfM1-XtLd-12" style="fillColor=#f8cecc;strokeColor=#007FFF;gradientColor=#ea6b66;sketch=1;curveFitting=1;jiggle=2;shadow=1;exitX=0.5;exitY=1;exitDx=0;exitDy=0;entryX=1;entryY=0;entryDx=0;entryDy=0;" edge="1" parent="1" source="tie_exit" target="print_score">
          <mxGeometry relative="1" as="geometry">
            <mxPoint x="474" y="1790" as="sourcePoint" />
            <mxPoint x="574" y="1940" as="targetPoint" />
          </mxGeometry>
        </mxCell>
        <mxCell id="S7Kg_eCqH_XXfM1-XtLd-16" value="Error" style="ellipse;whiteSpace=wrap;html=1;fillColor=#660000;strokeColor=#666666;gradientColor=#b3b3b3;sketch=1;curveFitting=1;jiggle=2;shadow=1;" vertex="1" parent="1">
          <mxGeometry x="134" y="540" width="120" height="60" as="geometry" />
        </mxCell>
        <mxCell id="S7Kg_eCqH_XXfM1-XtLd-17" style="fillColor=#f8cecc;strokeColor=#007FFF;gradientColor=#ea6b66;sketch=1;curveFitting=1;jiggle=2;shadow=1;entryX=1;entryY=0.5;entryDx=0;entryDy=0;exitX=0;exitY=0.5;exitDx=0;exitDy=0;" edge="1" parent="1" source="valid_name" target="S7Kg_eCqH_XXfM1-XtLd-16">
          <mxGeometry relative="1" as="geometry">
            <mxPoint x="354" y="390" as="sourcePoint" />
            <mxPoint x="294" y="390" as="targetPoint" />
          </mxGeometry>
        </mxCell>
        <mxCell id="S7Kg_eCqH_XXfM1-XtLd-18" value="No" style="edgeLabel;html=1;align=center;verticalAlign=middle;resizable=0;points=[];" vertex="1" connectable="0" parent="S7Kg_eCqH_XXfM1-XtLd-17">
          <mxGeometry x="-0.1556" relative="1" as="geometry">
            <mxPoint as="offset" />
          </mxGeometry>
        </mxCell>
        <mxCell id="S7Kg_eCqH_XXfM1-XtLd-19" style="fillColor=#f8cecc;strokeColor=#007FFF;gradientColor=#ea6b66;sketch=1;curveFitting=1;jiggle=2;shadow=1;entryX=0;entryY=0.5;entryDx=0;entryDy=0;exitX=0.5;exitY=0;exitDx=0;exitDy=0;" edge="1" parent="1" source="S7Kg_eCqH_XXfM1-XtLd-16" target="input_name">
          <mxGeometry relative="1" as="geometry">
            <mxPoint x="334" y="480" as="sourcePoint" />
            <mxPoint x="334" y="520" as="targetPoint" />
          </mxGeometry>
        </mxCell>
        <mxCell id="S7Kg_eCqH_XXfM1-XtLd-21" style="fillColor=#f8cecc;strokeColor=#007FFF;gradientColor=#ea6b66;sketch=1;curveFitting=1;jiggle=2;shadow=1;exitX=0.5;exitY=1;exitDx=0;exitDy=0;entryX=0.5;entryY=0;entryDx=0;entryDy=0;" edge="1" parent="1" source="print_score" target="play_again">
          <mxGeometry relative="1" as="geometry">
            <mxPoint x="244" y="1970" as="sourcePoint" />
            <mxPoint x="244" y="2020" as="targetPoint" />
          </mxGeometry>
        </mxCell>
      </root>
    </mxGraphModel>
  </diagram>
</mxfile>
